<svg version="1.1" id="Layer_1" xmlns="http://www.w3.org/2000/svg" xmlns:xlink="http://www.w3.org/1999/xlink" x="0px" y="0px"
	 width="100%" viewBox="0 0 120 73" enable-background="new 0 0 120 73" xml:space="preserve">
<path fill="#000000" opacity="1.000000" stroke="none" 
	d="
M19.000000,74.000000 
	C13.008744,74.000000 7.017488,74.000000 1.019674,74.000000 
	C1.013116,49.710876 1.013116,25.421747 1.013116,1.066309 
	C40.897408,1.066309 80.794952,1.066309 120.846252,1.066309 
	C120.846252,25.332623 120.846252,49.666183 120.846252,74.000000 
	C115.256210,74.000000 109.597816,74.000000 103.455673,73.631493 
	C101.647949,72.480019 100.323975,71.697060 99.000267,70.453705 
	C99.000412,56.022808 99.000282,42.052299 99.396072,28.045996 
	C100.849625,26.876844 101.907265,25.743492 102.964905,24.610138 
	C101.642212,23.740910 100.335892,22.147879 98.994217,22.117516 
	C88.708504,21.884733 78.415916,21.955839 68.054413,21.557846 
	C66.808884,15.758683 62.509346,17.196112 58.898968,16.983473 
	C55.309376,16.772055 54.589787,19.254768 53.503487,21.950127 
	C43.089069,21.988876 33.137520,21.881119 23.194979,22.131315 
	C21.784378,22.166811 20.417578,23.942883 19.030504,24.913347 
	C20.353645,25.969637 21.676788,27.025928 22.999691,28.545721 
	C22.950779,42.990162 22.902107,56.971104 22.492588,70.973236 
	C21.087826,71.996277 20.043911,72.998138 19.000000,74.000000 
z"/>
<path fill="#5AA071" opacity="1.000000" stroke="none" 
	d="
M19.468657,74.000000 
	C20.043911,72.998138 21.087826,71.996277 22.674835,71.294167 
	C24.532515,71.388557 25.847097,71.183205 27.524673,71.165878 
	C32.986492,71.502335 38.085320,71.650749 43.639404,71.753891 
	C60.456264,71.698540 76.817970,71.713745 93.179321,71.644882 
	C95.120537,71.636711 97.059814,71.168861 98.999992,70.914093 
	C100.323975,71.697060 101.647949,72.480019 102.985962,73.631493 
	C75.312439,74.000000 47.624878,74.000000 19.468657,74.000000 
z"/>
<path fill="#FCF6E8" opacity="1.000000" stroke="none" 
	d="
M99.000267,70.453705 
	C97.059814,71.168861 95.120537,71.636711 93.179321,71.644882 
	C76.817970,71.713745 60.456264,71.698540 43.590752,71.353546 
	C43.178001,68.501984 42.477356,66.866081 39.483616,66.967377 
	C35.382294,67.106133 31.272753,67.002060 27.161680,67.002060 
	C27.161680,68.668816 27.161680,69.823334 27.161680,70.977852 
	C25.847097,71.183205 24.532515,71.388557 23.035685,71.272980 
	C22.902107,56.971104 22.950779,42.990162 23.464340,28.472395 
	C30.557907,27.886318 37.186794,27.776245 43.815216,27.799461 
	C62.210300,27.863897 80.605194,27.983803 99.000160,28.081793 
	C99.000282,42.052299 99.000412,56.022808 99.000267,70.453705 
z"/>
<path fill="#5AA071" opacity="1.000000" stroke="none" 
	d="
M99.396072,28.045996 
	C80.605194,27.983803 62.210300,27.863897 43.815216,27.799461 
	C37.186794,27.776245 30.557907,27.886318 23.464581,28.008892 
	C21.676788,27.025928 20.353645,25.969637 19.030504,24.913347 
	C20.417578,23.942883 21.784378,22.166811 23.194979,22.131315 
	C33.137520,21.881119 43.089069,21.988876 53.762611,22.141182 
	C59.033474,22.177526 63.579468,22.055029 68.125465,21.932531 
	C78.415916,21.955839 88.708504,21.884733 98.994217,22.117516 
	C100.335892,22.147879 101.642212,23.740910 102.964905,24.610138 
	C101.907265,25.743492 100.849625,26.876844 99.396072,28.045996 
z"/>
<path fill="#4A845B" opacity="1.000000" stroke="none" 
	d="
M68.054413,21.557846 
	C63.579468,22.055029 59.033474,22.177526 54.228352,22.108971 
	C54.589787,19.254768 55.309376,16.772055 58.898968,16.983473 
	C62.509346,17.196112 66.808884,15.758683 68.054413,21.557846 
z"/>
<path fill="#444444" opacity="1.000000" stroke="none" 
	d="
M27.524673,71.165878 
	C27.161680,69.823334 27.161680,68.668816 27.161680,67.002060 
	C31.272753,67.002060 35.382294,67.106133 39.483616,66.967377 
	C42.477356,66.866081 43.178001,68.501984 43.135487,71.398834 
	C38.085320,71.650749 32.986492,71.502335 27.524673,71.165878 
z"/>
</svg>